<svg width="2070" height="616" viewBox="0 0 2070 616" fill="none" xmlns="http://www.w3.org/2000/svg">
<path opacity="0.3" fill-rule="evenodd" clip-rule="evenodd" d="M437.457 556.863C694.422 542.599 1574.65 494.756 1819.98 480.121C1841.41 478.847 1871.79 461.828 1868.72 420.689C1865.23 373.81 1810.3 387.742 1810.3 387.742C1810.3 387.742 1836.44 354.997 1811.43 316.401C1782.33 271.494 1746.59 292.309 1746.59 292.309C1746.59 292.309 1798.13 210.625 1728.2 164.296C1655.61 116.207 1611.01 183.105 1611.01 183.105C1611.01 183.105 1625.98 37.2376 1487.15 22.9754C1329.24 6.7415 1335.12 145.167 1335.12 145.167C1335.12 145.167 1277.16 62.6828 1206.17 92.2163C1126.61 125.309 1160.42 226.916 1160.42 226.916C1160.42 226.916 1141.69 198.146 1108.06 213.354C1083.23 224.578 1083.47 248.398 1084.25 263.678C1084.25 263.678 1081.73 222.616 1054.76 213.674C1022.63 203.016 1008.41 228.169 1008.41 228.169C1008.41 228.169 1026.54 172.459 994.82 152.855C949.096 124.597 921.314 168.614 921.314 168.614C921.314 168.614 905.419 85.9354 824.433 91.8403C743.448 97.7451 722.926 165.86 730.064 199.524C730.064 199.524 692.6 110.921 607.76 112.08C504.264 113.491 411.847 216.096 466.99 332.616C466.99 332.616 345.796 342.448 331.629 430.43C320.984 496.524 350.414 561.694 437.457 556.863Z" fill="#D2D3FB"/>
<path d="M415.876 377.459C125.226 368.323 10.8853 413.302 1.08875 457.4C-8.70776 501.498 40.0571 506.693 461.364 491.659C882.672 476.625 918.878 504.89 912.362 457.4C905.847 409.91 779.188 388.879 415.876 377.459Z" fill="url(#paint0_linear_7732_70646)"/>
<path d="M1328.5 381.767C1976.74 330.712 2046.62 491.801 2067.66 555.137C2088.7 618.473 1983.96 625.934 1079.05 604.342C174.141 582.749 96.3756 623.345 110.37 555.137C124.364 486.929 550.392 443.051 1328.5 381.767Z" fill="url(#paint1_linear_7732_70646)"/>
<ellipse cx="1250" cy="573.526" rx="53.3429" ry="10.7015" fill="#E98F2F"/>
<ellipse cx="1147.81" cy="563.235" rx="38.5612" ry="7.82033" fill="#E98F2F"/>
<ellipse cx="1314.27" cy="555.824" rx="19.9233" ry="3.70437" fill="#E98F2F"/>
<defs>
<linearGradient id="paint0_linear_7732_70646" x1="456.88" y1="376.567" x2="355.06" y2="659.379" gradientUnits="userSpaceOnUse">
<stop stop-color="#FFC429"/>
<stop offset="1" stop-color="#EB863E"/>
</linearGradient>
<linearGradient id="paint1_linear_7732_70646" x1="1088.68" y1="439.047" x2="1193.09" y2="872.746" gradientUnits="userSpaceOnUse">
<stop stop-color="#FFC429"/>
<stop offset="1" stop-color="#EB863E"/>
</linearGradient>
</defs>
</svg>
